<svg width="48" height="48" viewBox="0 0 48 48" fill="none" xmlns="http://www.w3.org/2000/svg">
<path d="M24 48C37.2548 48 48 37.2548 48 24C48 10.7452 37.2548 0 24 0C10.7452 0 0 10.7452 0 24C0 37.2548 10.7452 48 24 48Z" fill="white"/>
<path d="M23.5892 36.2264C23.5892 36.2264 24.5137 19.6117 23.5892 13.1506C22.6647 6.6893 4.9144 36.2264 7.50298 36.2264H23.5892Z" fill="url(#paint0_linear)" fill-opacity="0.6"/>
<path d="M36.3153 36.2278C36.3153 36.2278 37.4474 15.8505 36.3153 7.9259C35.1832 0.00137377 13.4474 36.2278 16.6172 36.2278H36.3153Z" fill="url(#paint1_linear)"/>
<defs>
<linearGradient id="paint0_linear" x1="24.441" y1="36.7791" x2="17.0667" y2="10.0051" gradientUnits="userSpaceOnUse">
<stop offset="0.0685802" stop-color="#068BFC"/>
<stop offset="0.742799" stop-color="#5BC5FF"/>
</linearGradient>
<linearGradient id="paint1_linear" x1="37.3583" y1="36.9057" x2="28.3018" y2="4.0755" gradientUnits="userSpaceOnUse">
<stop offset="0.0685802" stop-color="#068BFC"/>
<stop offset="0.742799" stop-color="#5BC5FF"/>
</linearGradient>
</defs>
</svg>
