<svg width="24" height="24" viewBox="0 0 24 24" fill="none" xmlns="http://www.w3.org/2000/svg">
<path fill-rule="evenodd" clip-rule="evenodd" d="M21 12C21 7.02944 16.9706 3 12 3C7.02944 3 3 7.02944 3 12C3 16.9706 7.02944 21 12 21C16.9706 21 21 16.9706 21 12ZM5 12C5 8.13401 8.13401 5 12 5C15.866 5 19 8.13401 19 12C19 15.866 15.866 19 12 19C8.13401 19 5 15.866 5 12ZM11 9C11 8.44772 11.4477 8 12 8C12.5523 8 13 8.44772 13 9V12C13 12.0036 13 12.0072 12.9999 12.0109L14.8426 13.8536C15.2332 14.2441 15.2332 14.8772 14.8426 15.2678C14.4521 15.6583 13.819 15.6583 13.4284 15.2678L11.3071 13.1464C11.1424 12.9818 11.0472 12.774 11.0214 12.5594C11.0075 12.5086 11 12.4552 11 12.4V9Z" fill="#141029" fill-opacity="0.4"/>
</svg>
