<svg width="48" height="48" viewBox="0 0 48 48" fill="none" xmlns="http://www.w3.org/2000/svg">
<path d="M24 48C37.2548 48 48 37.2548 48 24C48 10.7452 37.2548 0 24 0C10.7452 0 0 10.7452 0 24C0 37.2548 10.7452 48 24 48Z" fill="#E0E0FF"/>
<path d="M21.823 38.9921L8.54297 11.9431C8.32717 11.5115 8.65164 11.0007 9.12981 11.0007H13.7314C13.9782 11.0007 14.2095 11.1405 14.3182 11.3563L24.0166 30.9797C24.8814 32.7402 27.3824 32.7402 28.2472 30.9797L37.9145 11.3718C38.0232 11.156 38.2545 11.0163 38.5013 11.0163H39.0727C39.4127 11.0163 39.6285 11.3718 39.4748 11.6652L26.055 38.9921C25.1903 40.7511 22.6877 40.7511 21.823 38.9921Z" fill="#202036"/>
<path opacity="0.1" d="M21.823 38.9916L14.3182 11.3713C14.2096 11.1399 13.9627 11.0157 13.7624 11.0157H9.14533C8.63612 11.0157 8.3427 11.525 8.54297 11.9581L21.823 38.9916Z" fill="#202036"/>
<path opacity="0.1" d="M24.0166 30.993L8.54294 11.9424C8.35819 11.4952 8.63609 11.0466 9.06768 11H13.7469C14.0093 11.0155 14.2095 11.1847 14.3027 11.3555L24.0166 30.993Z" fill="#202036"/>
</svg>
