<svg width="16" height="16" viewBox="0 0 16 16" fill="none" xmlns="http://www.w3.org/2000/svg">
<path fill-rule="evenodd" clip-rule="evenodd" d="M10.576 4.90167L15.0126 5.28667C15.8193 5.35083 16.1401 6.35917 15.526 6.89083L12.1618 9.80583L13.1701 14.1417C13.3535 14.93 12.501 15.5533 11.8043 15.1317L8.00013 12.8308L4.19596 15.1225C3.49929 15.5442 2.64679 14.9208 2.83013 14.1325L3.83846 9.80583L0.474294 6.89083C-0.139872 6.35917 0.190128 5.35083 0.996794 5.28667L5.42429 4.91083L7.15679 0.8225C7.46846 0.08 8.53179 0.08 8.84346 0.8225L10.576 4.90167ZM4.55346 13.1975L8.00013 11.1167L11.456 13.2067L10.5393 9.28333L13.5826 6.64333L9.56763 6.29499L8.00013 2.59166L6.4418 6.28583L2.4268 6.63416L5.47013 9.27416L4.55346 13.1975Z" fill="#141029" fill-opacity="0.4"/>
</svg>
