<svg width="24" height="24" viewBox="0 0 24 24" fill="none" xmlns="http://www.w3.org/2000/svg">
<path fill-rule="evenodd" clip-rule="evenodd" d="M11 5C14.3137 5 17 7.68629 17 11C17 12.2958 16.5892 13.4957 15.8907 14.4765L18.4142 17C18.8047 17.3905 18.8047 18.0237 18.4142 18.4142C18.0237 18.8047 17.3905 18.8047 17 18.4142L14.4765 15.8907C13.4957 16.5892 12.2958 17 11 17C7.68629 17 5 14.3137 5 11C5 7.68629 7.68629 5 11 5ZM11 7C8.79086 7 7 8.79086 7 11C7 13.2091 8.79086 15 11 15C13.2091 15 15 13.2091 15 11C15 8.79086 13.2091 7 11 7Z" fill="#E0E0FF" fill-opacity="0.4"/>
</svg>
