<svg width="48" height="48" viewBox="0 0 48 48" fill="none" xmlns="http://www.w3.org/2000/svg">
<path d="M24 48C37.2548 48 48 37.2548 48 24C48 10.7452 37.2548 0 24 0C10.7452 0 0 10.7452 0 24C0 37.2548 10.7452 48 24 48Z" fill="black"/>
<path d="M37.0715 22.4342C37.1031 22.3941 37.1436 22.362 37.1897 22.3407C37.2358 22.3194 37.2862 22.3094 37.3368 22.3116L37.3653 22.3018C37.418 22.2607 37.4725 22.2215 37.5276 22.1835C36.9946 19.4381 35.6639 16.9163 33.706 14.9411C28.2544 9.42634 19.4233 9.54895 13.9747 15.0637C8.52611 20.5784 9.07127 29.7649 14.5199 35.2796C19.9685 40.7944 28.2574 40.4296 33.706 34.9118C34.3222 34.2878 34.8795 33.607 35.3706 32.8782C35.192 32.5498 35.0379 32.2084 34.9096 31.8568C34.5641 30.8952 34.4047 29.8752 34.4402 28.8526C34.3476 28.1708 34.3823 27.4774 34.5426 26.8086C34.5529 26.7625 34.5737 26.7195 34.6031 26.6829C34.6098 26.6523 34.6159 26.6216 34.6237 26.5916C34.6783 26.3946 34.7575 26.2054 34.8594 26.0288C34.9127 25.8163 34.9857 25.6094 35.0774 25.4108C35.1888 25.0074 35.3416 24.6169 35.5336 24.2459C35.5802 24.1533 35.6317 24.0571 35.688 23.959C35.7011 23.8942 35.7358 23.836 35.7862 23.794C36.1078 23.2692 36.5482 22.7285 37.0715 22.4342ZM29.5228 30.676C28.399 31.8134 26.9672 32.588 25.4084 32.9018C23.8496 33.2157 22.2339 33.0546 20.7656 32.439C19.2972 31.8234 18.0422 30.781 17.1593 29.4435C16.2763 28.106 15.805 26.5335 15.805 24.9249C15.805 23.3163 16.2763 21.7438 17.1593 20.4063C18.0422 19.0688 19.2972 18.0264 20.7656 17.4108C22.2339 16.7952 23.8496 16.6341 25.4084 16.9479C26.9672 17.2618 28.399 18.0364 29.5228 19.1738C30.269 19.9291 30.8609 20.8257 31.2648 21.8124C31.6686 22.7992 31.8764 23.8568 31.8764 24.9249C31.8764 25.993 31.6686 27.0506 31.2648 28.0373C30.8609 29.0241 30.269 29.9207 29.5228 30.676Z" fill="url(#paint0_linear)"/>
<path d="M38.8539 17.7175C39.2144 17.5421 39.6063 17.4425 40.0059 17.4248C40.4056 17.4071 40.8046 17.4716 41.1788 17.6144C41.5531 17.7572 41.8949 17.9753 42.1835 18.2556C42.4721 18.536 42.7015 18.8726 42.8579 19.2452C43.0143 19.6178 43.0944 20.0187 43.0933 20.4235C43.0923 20.8284 43.0101 21.2288 42.8518 21.6006C42.6935 21.9724 42.4623 22.3078 42.1722 22.5866C41.8822 22.8653 41.5392 23.0817 41.1642 23.2225V23.2286C39.5902 23.8971 38.2673 25.0553 37.387 26.5355C36.5066 28.0157 36.1145 29.741 36.2674 31.4617L30.4154 31.9522C30.1059 28.3534 31.1071 24.6387 33.5828 21.6523C35.0049 19.9343 36.8121 18.5852 38.8539 17.7175Z" fill="url(#paint1_linear)"/>
<path d="M33.2848 20.7389L33.2915 20.7297C33.2937 20.7268 33.2957 20.7237 33.2975 20.7205C33.7495 20.0715 34.4376 19.6308 35.2106 19.4953C35.9835 19.3598 36.778 19.5406 37.4193 19.998C38.0605 20.4554 38.496 21.1519 38.6299 21.9342C38.7637 22.7166 38.5851 23.5207 38.1331 24.1697C37.2167 25.4149 36.9586 26.4731 36.9029 27.2352C36.8423 28.0874 36.8738 28.1376 36.8193 29.4018C36.7775 30.3779 36.4977 31.2184 36.2596 31.6672C35.5576 32.989 32.7463 32.962 30.9897 31.2607C30.8891 31.0617 30.7896 30.854 30.6911 30.6378C30.5768 30.3869 30.4712 30.1416 30.3743 29.9021C30.3688 29.8825 30.393 29.9892 30.3743 29.9021C30.347 29.7728 30.3416 29.6397 30.3585 29.5085C30.367 29.4178 30.367 29.4178 30.3821 29.1738C30.4148 28.6385 30.4324 28.0426 30.6396 27.1506C30.6826 26.9593 30.7292 26.7515 30.8098 26.4486C30.9836 25.8012 31.1787 25.2476 31.4204 24.5615C31.4234 24.5609 32.2872 21.9651 33.2848 20.7389Z" fill="url(#paint2_linear)"/>
<path d="M10.8864 20.1519C10.3969 21.4767 10.1066 22.8684 10.025 24.2804C10.0189 24.4478 10.0111 24.6145 10.0038 24.7831C9.92356 28.2613 11.1147 31.6471 13.3488 34.2911C15.5829 36.9352 18.7028 38.6516 22.1101 39.111C22.7764 39.1361 24.2387 39.2912 25.67 39.1012C27.2922 38.886 28.872 38.3152 29.193 38.2042C29.5217 38.0693 29.8464 37.9214 30.167 37.7604C30.8769 37.3698 31.9333 36.6672 32.5821 36.2092C32.8523 36.0192 33.3035 35.6188 33.8178 35.0983C34.8015 34.0959 35.6351 32.9533 36.2922 31.7067C36.4704 31.2993 36.5475 30.8539 36.517 30.4094C36.4067 28.9779 35.105 27.7045 33.7718 27.6125C33.2311 27.5738 32.6902 27.6863 32.2084 27.9377C31.7266 28.1891 31.3224 28.5697 31.0399 29.038C30.7177 29.4967 30.3615 29.93 29.9744 30.334C29.6206 30.7019 27.9924 32.3505 26.0613 32.9703C22.7073 34.0487 19.3891 31.7306 18.9548 31.4186C17.2169 30.4395 10.8864 20.1519 10.8864 20.1519Z" fill="url(#paint3_linear)"/>
<path d="M37.6364 15.6551C39.1793 15.6551 40.4301 14.3892 40.4301 12.8276C40.4301 11.2659 39.1793 10 37.6364 10C36.0935 10 34.8428 11.2659 34.8428 12.8276C34.8428 14.3892 36.0935 15.6551 37.6364 15.6551Z" fill="url(#paint4_linear)"/>
<path d="M30.336 29.8541C30.3281 29.8658 30.333 29.7726 30.3172 29.7928C28.7895 31.8847 26.6119 32.613 26.2588 32.7258C26.1522 32.7595 25.0164 33.0937 23.8909 33.0937C22.3947 33.1006 20.9263 32.6845 19.6511 31.8924C18.3759 31.1003 17.3445 29.9636 16.6731 28.6102C16.0016 27.2569 15.7169 25.7407 15.8508 24.2324C15.9848 22.7241 16.5321 21.2836 17.4312 20.0731C18.3303 18.8627 19.5455 17.9303 20.9398 17.3811C22.3342 16.8318 23.8524 16.6875 25.3234 16.9644C26.7944 17.2412 28.1598 17.9283 29.2659 18.9481C30.3719 19.9679 31.1747 21.2801 31.5838 22.7368C31.5917 22.7644 31.7425 23.4167 31.7989 23.4903C31.8594 23.3266 31.8994 23.245 31.9697 23.0844C32.0399 22.9238 32.1253 22.6552 32.2186 22.5075C32.2184 22.5061 32.2184 22.5046 32.2186 22.5032L32.3634 22.177C32.3634 22.177 32.3555 22.1617 32.2756 21.822C32.2089 21.5425 32.2041 21.5106 32.2023 21.502C31.3131 16.2295 26.7646 12.2266 21.3057 12.253C19.8605 12.26 18.431 12.5551 17.0986 13.1214C15.7661 13.6877 14.557 14.5141 13.5401 15.5534C12.5233 16.5926 11.7186 17.8245 11.1721 19.1785C10.6256 20.5325 10.348 21.9823 10.3551 23.4449C10.386 30.1386 16.3713 34.5565 21.4104 34.5295C26.4187 34.5025 29.6673 30.6928 30.1646 30.0809" fill="url(#paint5_linear)"/>
<defs>
<linearGradient id="paint0_linear" x1="37.7907" y1="25.0498" x2="10.1511" y2="25.0498" gradientUnits="userSpaceOnUse">
<stop offset="0.09" stop-color="#6DC1D6"/>
<stop offset="0.31" stop-color="#72C6D7"/>
<stop offset="0.61" stop-color="#589AC5"/>
<stop offset="1" stop-color="#3864AF"/>
</linearGradient>
<linearGradient id="paint1_linear" x1="35.9562" y1="33.0507" x2="38.7183" y2="17.3191" gradientUnits="userSpaceOnUse">
<stop offset="0.47" stop-color="#FFDF7F"/>
<stop offset="0.57" stop-color="#FFBE6B"/>
<stop offset="0.69" stop-color="#FF9E58"/>
<stop offset="0.8" stop-color="#FF884A"/>
<stop offset="0.91" stop-color="#FF7A42"/>
<stop offset="1" stop-color="#FF753F"/>
</linearGradient>
<linearGradient id="paint2_linear" x1="39.3317" y1="25.4114" x2="32.2758" y2="26.998" gradientUnits="userSpaceOnUse">
<stop offset="0.01" stop-color="#E670A7"/>
<stop offset="0.12" stop-color="#CB65A2"/>
<stop offset="0.31" stop-color="#A2559B"/>
<stop offset="0.5" stop-color="#824895"/>
<stop offset="0.68" stop-color="#6C3F90"/>
<stop offset="0.85" stop-color="#5E3A8E"/>
<stop offset="1" stop-color="#59388D"/>
</linearGradient>
<linearGradient id="paint3_linear" x1="12.6551" y1="33.5582" x2="32.2445" y2="22.3839" gradientUnits="userSpaceOnUse">
<stop stop-color="#15ADFF"/>
<stop offset="0.06" stop-color="#40A3D4"/>
<stop offset="0.13" stop-color="#6D99A7"/>
<stop offset="0.21" stop-color="#949080"/>
<stop offset="0.3" stop-color="#B5885F"/>
<stop offset="0.38" stop-color="#D08244"/>
<stop offset="0.48" stop-color="#E57D2F"/>
<stop offset="0.59" stop-color="#F47A20"/>
<stop offset="0.72" stop-color="#FC7818"/>
<stop offset="0.92" stop-color="#FF7715"/>
</linearGradient>
<linearGradient id="paint4_linear" x1="36.0318" y1="15.1426" x2="39.2931" y2="10.5495" gradientUnits="userSpaceOnUse">
<stop stop-color="#55398D"/>
<stop offset="1" stop-color="#C05B9D"/>
</linearGradient>
<linearGradient id="paint5_linear" x1="10.3485" y1="23.3907" x2="32.3582" y2="23.39" gradientUnits="userSpaceOnUse">
<stop stop-color="#A3D6D9"/>
<stop offset="0.52" stop-color="#34A4DD"/>
<stop offset="0.56" stop-color="#349DD8"/>
<stop offset="0.74" stop-color="#367EC2"/>
<stop offset="0.89" stop-color="#386BB4"/>
<stop offset="1" stop-color="#3864AF"/>
</linearGradient>
</defs>
</svg>
