<svg width="24" height="24" viewBox="0 0 24 24" fill="none" xmlns="http://www.w3.org/2000/svg">
<path fill-rule="evenodd" clip-rule="evenodd" d="M4 3H10C10.5523 3 11 3.44772 11 4V12C11 12.5523 10.5523 13 10 13H4C3.44772 13 3 12.5523 3 12V4C3 3.44772 3.44772 3 4 3ZM5 5V11H9V5H5ZM14 3H20C20.5523 3 21 3.44772 21 4V8C21 8.55228 20.5523 9 20 9H14C13.4477 9 13 8.55228 13 8V4C13 3.44772 13.4477 3 14 3ZM15 5V7H19V5H15ZM20 11H14C13.4477 11 13 11.4477 13 12V20C13 20.5523 13.4477 21 14 21H20C20.5523 21 21 20.5523 21 20V12C21 11.4477 20.5523 11 20 11ZM19 19H15V13H19V19ZM4 15H10C10.5523 15 11 15.4477 11 16V20C11 20.5523 10.5523 21 10 21H4C3.44772 21 3 20.5523 3 20V16C3 15.4477 3.44772 15 4 15ZM5 17V19H9V17H5Z" fill="#141029" fill-opacity="0.4"/>
</svg>
