<svg width="48" height="48" viewBox="0 0 48 48" fill="none" xmlns="http://www.w3.org/2000/svg">
<path d="M22.7296 0H25.2305C27.8394 0.172798 30.4339 0.693594 32.858 1.67279C38.8582 4.03196 43.8097 8.92552 46.2266 14.9063C49.5531 22.8694 48.125 32.5821 42.5712 39.2085C38.8126 43.8212 33.2852 46.9628 27.3858 47.762C21.8487 48.5516 16.0381 47.3588 11.3003 44.366C7.64736 42.0908 4.62324 38.8173 2.66475 34.9821C0.151851 30.1653 -0.611381 24.4726 0.492665 19.159C1.67351 13.2695 5.18966 7.89593 10.0931 4.43276C13.7652 1.77598 18.2174 0.280797 22.7296 0ZM21.2415 1.08719C13.9404 1.92478 7.22974 6.52314 3.7496 12.9887C1.3951 17.287 0.454263 22.3558 1.16469 27.211C1.96873 33.0573 5.14886 38.5269 9.80505 42.146C13.35 44.942 17.735 46.658 22.2376 46.994C27.3378 47.3996 32.5604 46.0388 36.7942 43.166C41.9856 39.7292 45.6697 34.1085 46.7282 27.9718C47.3378 24.355 47.1314 20.587 46.0129 17.0902C44.4169 12.0047 40.9967 7.50953 36.5085 4.62956C32.0468 1.70158 26.5385 0.431996 21.2415 1.08719Z" fill="#E0E0FF"/>
<circle cx="24" cy="24" r="16" fill="#E0E0FF"/>
<path d="M21.8199 10.5382C25.9937 9.83983 30.4698 11.2078 33.4724 14.203C36.1365 16.7182 37.6917 20.3733 37.6149 24.0381C37.6677 27.6837 36.1053 31.31 33.4532 33.8036C30.5658 36.674 26.3201 38.0444 22.2951 37.514C18.5029 37.058 14.9532 34.9028 12.7979 31.7468C10.4122 28.3677 9.75459 23.8701 10.993 19.9317C12.4427 15.0838 16.8205 11.2942 21.8199 10.5382ZM22.6527 11.3686C22.6551 12.5614 22.6575 13.7542 22.6551 14.947C23.2503 14.947 23.8456 14.947 24.4408 14.9494C24.4432 13.7254 24.4456 12.5014 24.4408 11.2798C23.8456 11.299 23.2479 11.3278 22.6527 11.3686ZM26.9465 15.0046C28.5138 15.2158 30.1986 15.4558 31.4491 16.5142C33.3572 18.2277 33.11 21.8253 30.7747 23.0685C32.1739 23.3949 33.5588 24.3285 33.9044 25.7973C34.3532 27.7245 33.9956 30.038 32.4475 31.3964C30.9139 32.6588 28.8378 32.8244 26.9417 33.0044C26.9513 34.1204 26.9465 35.2364 26.9441 36.3548C30.9355 35.378 34.3796 32.4068 35.8437 28.5621C37.2333 25.0149 36.9045 20.8413 34.9436 17.575C33.2108 14.6278 30.2634 12.463 26.9537 11.6326C26.9441 12.7558 26.9441 13.879 26.9465 15.0046ZM15.0348 14.9566C16.7629 15.0406 18.4933 15.0214 20.2238 15.019C20.2238 13.9654 20.2262 12.9142 20.219 11.8606C18.2821 12.4894 16.5565 13.6174 15.0348 14.9566ZM14.8284 15.0958C14.37 15.6598 13.5203 16.7254 13.0163 17.6686C10.9834 21.1317 10.753 25.5765 12.4499 29.2197C13.914 32.486 16.8181 35.0276 20.219 36.122C20.2238 35.0708 20.2214 34.0196 20.2214 32.9708C18.4861 32.954 16.7461 33.0164 15.0132 32.9228C15.0324 31.9556 15.2604 31.01 15.5892 30.098C16.4389 30.0812 17.3245 30.23 18.1453 29.9516C18.6254 29.5485 18.4885 28.8813 18.5149 28.3293C18.4885 25.1733 18.5269 22.0173 18.4981 18.8637C18.5294 18.3549 18.2101 17.8054 17.6821 17.7046C16.8109 17.5294 15.9132 17.599 15.0324 17.5918C14.9292 16.8814 14.9172 16.1638 14.9076 15.4462C14.9076 15.4462 14.9196 15.2206 14.8428 15.0742L14.8284 15.0958ZM22.7271 17.8078V22.4589C24.28 22.4301 26.0033 22.6029 27.3617 21.7005C28.4898 20.9613 28.4178 19.0917 27.2537 18.4269C25.8929 17.623 24.2344 17.851 22.7271 17.8078ZM22.7271 24.9621V30.122C24.6448 29.9684 26.7953 30.29 28.4634 29.1333C29.6562 28.3413 29.5122 26.3805 28.2834 25.6941C26.6129 24.6957 24.5824 25.0125 22.7271 24.9621ZM22.6575 33.0404C22.6575 34.2332 22.6551 35.4284 22.6527 36.6212C23.2743 36.662 23.8936 36.686 24.5152 36.7052C24.52 35.4836 24.5176 34.262 24.5176 33.0404H22.6575Z" fill="#202036"/>
<path d="M21.381 2.33263C25.5859 1.88144 29.9397 2.52223 33.7175 4.46141C38.5777 6.84459 42.4634 11.1286 44.3787 16.1901C46.3324 21.2589 46.2892 27.0572 44.2659 32.102C41.189 40.0531 33.0646 45.7698 24.5107 45.7818C19.4873 45.9642 14.4327 44.2747 10.4989 41.1499C6.30354 37.8883 3.40182 33.014 2.50658 27.7748C1.59215 22.5861 2.61699 17.0733 5.3915 12.5877C8.78284 6.96219 14.8575 3.07423 21.381 2.33263ZM20.6489 9.37417C17.2312 10.1446 14.1063 12.1629 12.011 14.9733C9.69728 18.0165 8.63644 21.9741 9.10925 25.7636C9.55327 29.8196 11.7686 33.6452 15.0639 36.0475C18.148 38.3659 22.1562 39.3835 25.9723 38.8603C30.6885 38.2843 35.0255 35.2819 37.2264 31.07C38.8753 28.0652 39.3265 24.494 38.7217 21.1413C37.9512 17.0757 35.4119 13.3821 31.879 11.227C28.5716 9.16777 24.4435 8.50778 20.6489 9.37417Z" fill="#E0E0FF"/>
</svg>
