<svg width="48" height="48" viewBox="0 0 48 48" fill="none" xmlns="http://www.w3.org/2000/svg">
<path d="M24 48C37.2548 48 48 37.2548 48 24C48 10.7452 37.2548 0 24 0C10.7452 0 0 10.7452 0 24C0 37.2548 10.7452 48 24 48Z" fill="#E0E0FF"/>
<path d="M39.7499 32.9997V14.9999L23.9492 6L8.25024 14.9999V32.9997L23.9492 41.9996L39.7499 32.9997ZM9.56358 32.1733V15.7457L23.9492 7.54198L38.3042 15.7457V32.1733L23.9492 40.3871L9.56358 32.1733Z" fill="#202036"/>
<path d="M30.0897 13.7727H17.8399L16.4319 20.3075L31.5681 20.3181L30.0897 13.7727Z" fill="#202036"/>
<path d="M20.1907 24.6571L16.5057 22.364L12.3411 25.3949L18.0267 35.0457H20.2927L22.9773 32.5931V31.3768L20.1907 28.7647V24.6571Z" fill="#202036"/>
<path d="M31.8896 22.364L28.2244 24.687V28.7946L25.4319 31.3967L25.4422 32.633L28.1423 35.0457H30.3907L36.0681 25.4248L31.8896 22.364Z" fill="#202036"/>
<path d="M20.1138 21.1362L21.4912 24.6174L21.0666 28.4998L27.3427 28.4898L26.9491 24.6174L28.2955 21.1362H20.1138Z" fill="#202036"/>
</svg>
