<svg width="48" height="48" viewBox="0 0 48 48" fill="none" xmlns="http://www.w3.org/2000/svg">
<path d="M24 48C37.2548 48 48 37.2548 48 24C48 10.7452 37.2548 0 24 0C10.7452 0 0 10.7452 0 24C0 37.2548 10.7452 48 24 48Z" fill="#E0E0FF"/>
<path d="M32.2144 10.111C33.4158 10.111 34.3898 9.13703 34.3898 7.93561C34.3898 6.7342 33.4158 5.76025 32.2144 5.76025C31.013 5.76025 30.0391 6.7342 30.0391 7.93561C30.0391 9.13703 31.013 10.111 32.2144 10.111Z" fill="#202036"/>
<path d="M32.8086 15.4841C33.8257 15.4841 34.6503 14.6595 34.6503 13.6423C34.6503 12.6251 33.8257 11.8005 32.8086 11.8005C31.7914 11.8005 30.9668 12.6251 30.9668 13.6423C30.9668 14.6595 31.7914 15.4841 32.8086 15.4841Z" fill="#202036"/>
<path d="M37.6377 16.1695C38.6525 16.1695 39.4752 15.3469 39.4752 14.3321C39.4752 13.3173 38.6525 12.4946 37.6377 12.4946C36.6229 12.4946 35.8003 13.3173 35.8003 14.3321C35.8003 15.3469 36.6229 16.1695 37.6377 16.1695Z" fill="#202036"/>
<path d="M37.0452 20.7704C37.9131 20.7704 38.6167 20.0668 38.6167 19.1988C38.6167 18.3309 37.9131 17.6273 37.0452 17.6273C36.1772 17.6273 35.4736 18.3309 35.4736 19.1988C35.4736 20.0668 36.1772 20.7704 37.0452 20.7704Z" fill="#202036"/>
<path d="M40.9097 22.2679C41.7832 22.2679 42.4913 21.5598 42.4913 20.6863C42.4913 19.8128 41.7832 19.1047 40.9097 19.1047C40.0362 19.1047 39.3281 19.8128 39.3281 20.6863C39.3281 21.5598 40.0362 22.2679 40.9097 22.2679Z" fill="#202036"/>
<path d="M32.1876 20.1444C33.0767 20.1444 33.7975 19.4236 33.7975 18.5345C33.7975 17.6453 33.0767 16.9246 32.1876 16.9246C31.2984 16.9246 30.5776 17.6453 30.5776 18.5345C30.5776 19.4236 31.2984 20.1444 32.1876 20.1444Z" fill="#202036"/>
<path d="M30.7833 23.8025C31.5291 23.8025 32.1336 23.198 32.1336 22.4523C32.1336 21.7066 31.5291 21.1021 30.7833 21.1021C30.0376 21.1021 29.4331 21.7066 29.4331 22.4523C29.4331 23.198 30.0376 23.8025 30.7833 23.8025Z" fill="#202036"/>
<path d="M35.617 24.4534C36.3572 24.4534 36.9572 23.8534 36.9572 23.1132C36.9572 22.3731 36.3572 21.7731 35.617 21.7731C34.8769 21.7731 34.2769 22.3731 34.2769 23.1132C34.2769 23.8534 34.8769 24.4534 35.617 24.4534Z" fill="#202036"/>
<path d="M39.4752 25.9447C40.222 25.9447 40.8274 25.3393 40.8274 24.5925C40.8274 23.8457 40.222 23.2404 39.4752 23.2404C38.7284 23.2404 38.123 23.8457 38.123 24.5925C38.123 25.3393 38.7284 25.9447 39.4752 25.9447Z" fill="#202036"/>
<path d="M37.5614 28.7158C38.1912 28.7158 38.7019 28.2052 38.7019 27.5753C38.7019 26.9454 38.1912 26.4348 37.5614 26.4348C36.9315 26.4348 36.4209 26.9454 36.4209 27.5753C36.4209 28.2052 36.9315 28.7158 37.5614 28.7158Z" fill="#202036"/>
<path d="M33.6884 27.2484C34.332 27.2484 34.8538 26.7266 34.8538 26.0829C34.8538 25.4393 34.332 24.9175 33.6884 24.9175C33.0447 24.9175 32.5229 25.4393 32.5229 26.0829C32.5229 26.7266 33.0447 27.2484 33.6884 27.2484Z" fill="#202036"/>
<path d="M28.8575 26.5683C29.4953 26.5683 30.0124 26.0512 30.0124 25.4134C30.0124 24.7756 29.4953 24.2585 28.8575 24.2585C28.2197 24.2585 27.7026 24.7756 27.7026 25.4134C27.7026 26.0512 28.2197 26.5683 28.8575 26.5683Z" fill="#202036"/>
<path d="M31.5359 29.1766C32.0918 29.1766 32.5424 28.7259 32.5424 28.17C32.5424 27.6141 32.0918 27.1635 31.5359 27.1635C30.9799 27.1635 30.5293 27.6141 30.5293 28.17C30.5293 28.7259 30.9799 29.1766 31.5359 29.1766Z" fill="#202036"/>
<path d="M35.4092 30.6722C35.9699 30.6722 36.4244 30.2177 36.4244 29.657C36.4244 29.0964 35.9699 28.6418 35.4092 28.6418C34.8486 28.6418 34.394 29.0964 34.394 29.657C34.394 30.2177 34.8486 30.6722 35.4092 30.6722Z" fill="#202036"/>
<path d="M33.2201 31.7719C33.662 31.7719 34.0202 31.4137 34.0202 30.9718C34.0202 30.5299 33.662 30.1716 33.2201 30.1716C32.7782 30.1716 32.4199 30.5299 32.4199 30.9718C32.4199 31.4137 32.7782 31.7719 33.2201 31.7719Z" fill="#202036"/>
<path d="M31.1486 32.3696C31.5502 32.3696 31.8758 32.044 31.8758 31.6424C31.8758 31.2407 31.5502 30.9152 31.1486 30.9152C30.747 30.9152 30.4214 31.2407 30.4214 31.6424C30.4214 32.044 30.747 32.3696 31.1486 32.3696Z" fill="#202036"/>
<path d="M29.3464 30.3872C29.8233 30.3872 30.2099 30.0006 30.2099 29.5237C30.2099 29.0468 29.8233 28.6602 29.3464 28.6602C28.8695 28.6602 28.4829 29.0468 28.4829 29.5237C28.4829 30.0006 28.8695 30.3872 29.3464 30.3872Z" fill="#202036"/>
<path d="M26.6985 28.5132C27.2531 28.5132 27.7027 28.0636 27.7027 27.509C27.7027 26.9545 27.2531 26.5049 26.6985 26.5049C26.1439 26.5049 25.6943 26.9545 25.6943 27.509C25.6943 28.0636 26.1439 28.5132 26.6985 28.5132Z" fill="#202036"/>
<path d="M34.6253 40.6232C35.8206 40.6232 36.7896 39.6542 36.7896 38.4589C36.7896 37.2636 35.8206 36.2946 34.6253 36.2946C33.4299 36.2946 32.4609 37.2636 32.4609 38.4589C32.4609 39.6542 33.4299 40.6232 34.6253 40.6232Z" fill="#202036"/>
<path d="M29.359 37.9716C30.356 37.9716 31.1643 37.1634 31.1643 36.1664C31.1643 35.1693 30.356 34.3611 29.359 34.3611C28.362 34.3611 27.5537 35.1693 27.5537 36.1664C27.5537 37.1634 28.362 37.9716 29.359 37.9716Z" fill="#202036"/>
<path d="M26.3612 41.7603C27.3667 41.7603 28.1818 40.9452 28.1818 39.9397C28.1818 38.9341 27.3667 38.119 26.3612 38.119C25.3557 38.119 24.5405 38.9341 24.5405 39.9397C24.5405 40.9452 25.3557 41.7603 26.3612 41.7603Z" fill="#202036"/>
<path d="M25.4494 34.7557C26.3202 34.7557 27.0262 34.0497 27.0262 33.1788C27.0262 32.308 26.3202 31.6021 25.4494 31.6021C24.5785 31.6021 23.8726 32.308 23.8726 33.1788C23.8726 34.0497 24.5785 34.7557 25.4494 34.7557Z" fill="#202036"/>
<path d="M22.4528 38.5966C23.3216 38.5966 24.0258 37.8924 24.0258 37.0236C24.0258 36.1549 23.3216 35.4507 22.4528 35.4507C21.5841 35.4507 20.8799 36.1549 20.8799 37.0236C20.8799 37.8924 21.5841 38.5966 22.4528 38.5966Z" fill="#202036"/>
<path d="M19.2332 41.2059C20.099 41.2059 20.8009 40.504 20.8009 39.6382C20.8009 38.7724 20.099 38.0706 19.2332 38.0706C18.3674 38.0706 17.6655 38.7724 17.6655 39.6382C17.6655 40.504 18.3674 41.2059 19.2332 41.2059Z" fill="#202036"/>
<path d="M16.5375 37.7897C17.2755 37.7897 17.8738 37.1914 17.8738 36.4534C17.8738 35.7154 17.2755 35.1171 16.5375 35.1171C15.7995 35.1171 15.2012 35.7154 15.2012 36.4534C15.2012 37.1914 15.7995 37.7897 16.5375 37.7897Z" fill="#202036"/>
<path d="M19.7674 35.1713C20.5068 35.1713 21.1062 34.572 21.1062 33.8326C21.1062 33.0933 20.5068 32.4939 19.7674 32.4939C19.0281 32.4939 18.4287 33.0933 18.4287 33.8326C18.4287 34.572 19.0281 35.1713 19.7674 35.1713Z" fill="#202036"/>
<path d="M22.7806 31.3303C23.5207 31.3303 24.1207 30.7303 24.1207 29.9902C24.1207 29.25 23.5207 28.65 22.7806 28.65C22.0404 28.65 21.4404 29.25 21.4404 29.9902C21.4404 30.7303 22.0404 31.3303 22.7806 31.3303Z" fill="#202036"/>
<path d="M18.1631 31.8429C18.8036 31.8429 19.3228 31.3237 19.3228 30.6832C19.3228 30.0428 18.8036 29.5236 18.1631 29.5236C17.5226 29.5236 17.0034 30.0428 17.0034 30.6832C17.0034 31.3237 17.5226 31.8429 18.1631 31.8429Z" fill="#202036"/>
<path d="M14.9494 34.4508C15.5846 34.4508 16.0995 33.9359 16.0995 33.3007C16.0995 32.6655 15.5846 32.1506 14.9494 32.1506C14.3142 32.1506 13.7993 32.6655 13.7993 33.3007C13.7993 33.9359 14.3142 34.4508 14.9494 34.4508Z" fill="#202036"/>
<path d="M14.205 31.3826C14.7548 31.3826 15.2005 30.9369 15.2005 30.3871C15.2005 29.8373 14.7548 29.3916 14.205 29.3916C13.6552 29.3916 13.2095 29.8373 13.2095 30.3871C13.2095 30.9369 13.6552 31.3826 14.205 31.3826Z" fill="#202036"/>
<path d="M14.1694 28.686C14.641 28.686 15.0233 28.3037 15.0233 27.8321C15.0233 27.3605 14.641 26.9781 14.1694 26.9781C13.6977 26.9781 13.3154 27.3605 13.3154 27.8321C13.3154 28.3037 13.6977 28.686 14.1694 28.686Z" fill="#202036"/>
<path d="M14.61 26.4425C15.0114 26.4425 15.3367 26.1171 15.3367 25.7157C15.3367 25.3144 15.0114 24.989 14.61 24.989C14.2087 24.989 13.8833 25.3144 13.8833 25.7157C13.8833 26.1171 14.2087 26.4425 14.61 26.4425Z" fill="#202036"/>
<path d="M17.3904 26.083C17.8673 26.083 18.2539 25.6964 18.2539 25.2195C18.2539 24.7426 17.8673 24.356 17.3904 24.356C16.9135 24.356 16.5269 24.7426 16.5269 25.2195C16.5269 25.6964 16.9135 26.083 17.3904 26.083Z" fill="#202036"/>
<path d="M20.4338 24.9281C20.9895 24.9281 21.4399 24.4776 21.4399 23.922C21.4399 23.3663 20.9895 22.9159 20.4338 22.9159C19.8782 22.9159 19.4277 23.3663 19.4277 23.922C19.4277 24.4776 19.8782 24.9281 20.4338 24.9281Z" fill="#202036"/>
<path d="M21.1638 27.9784C21.7961 27.9784 22.3086 27.4659 22.3086 26.8336C22.3086 26.2014 21.7961 25.6888 21.1638 25.6888C20.5316 25.6888 20.019 26.2014 20.019 26.8336C20.019 27.4659 20.5316 27.9784 21.1638 27.9784Z" fill="#202036"/>
<path d="M17.431 28.7767C17.9819 28.7767 18.4285 28.3302 18.4285 27.7793C18.4285 27.2284 17.9819 26.7819 17.431 26.7819C16.8802 26.7819 16.4336 27.2284 16.4336 27.7793C16.4336 28.3302 16.8802 28.7767 17.431 28.7767Z" fill="#202036"/>
<path d="M6.97401 27.4688C8.16562 27.4688 9.13161 26.5028 9.13161 25.3112C9.13161 24.1196 8.16562 23.1536 6.97401 23.1536C5.7824 23.1536 4.81641 24.1196 4.81641 25.3112C4.81641 26.5028 5.7824 27.4688 6.97401 27.4688Z" fill="#202036"/>
<path d="M11.638 23.7661C12.6587 23.7661 13.486 22.9387 13.486 21.9181C13.486 20.8974 12.6587 20.0701 11.638 20.0701C10.6174 20.0701 9.79004 20.8974 9.79004 21.9181C9.79004 22.9387 10.6174 23.7661 11.638 23.7661Z" fill="#202036"/>
<path d="M9.80959 19.2305C10.8249 19.2305 11.648 18.4074 11.648 17.3921C11.648 16.3768 10.8249 15.5537 9.80959 15.5537C8.79427 15.5537 7.97119 16.3768 7.97119 17.3921C7.97119 18.4074 8.79427 19.2305 9.80959 19.2305Z" fill="#202036"/>
<path d="M14.3068 17.0599C15.1771 17.0599 15.8826 16.3544 15.8826 15.484C15.8826 14.6137 15.1771 13.9082 14.3068 13.9082C13.4365 13.9082 12.731 14.6137 12.731 15.484C12.731 16.3544 13.4365 17.0599 14.3068 17.0599Z" fill="#202036"/>
<path d="M16.148 21.5796C17.0212 21.5796 17.7291 20.8717 17.7291 19.9985C17.7291 19.1253 17.0212 18.4174 16.148 18.4174C15.2748 18.4174 14.5669 19.1253 14.5669 19.9985C14.5669 20.8717 15.2748 21.5796 16.148 21.5796Z" fill="#202036"/>
<path d="M20.2404 20.6215C20.984 20.6215 21.5868 20.0187 21.5868 19.2751C21.5868 18.5315 20.984 17.9287 20.2404 17.9287C19.4968 17.9287 18.894 18.5315 18.894 19.2751C18.894 20.0187 19.4968 20.6215 20.2404 20.6215Z" fill="#202036"/>
<path d="M23.7788 20.6177C24.419 20.6177 24.938 20.0987 24.938 19.4585C24.938 18.8183 24.419 18.2993 23.7788 18.2993C23.1386 18.2993 22.6196 18.8183 22.6196 19.4585C22.6196 20.0987 23.1386 20.6177 23.7788 20.6177Z" fill="#202036"/>
<path d="M26.6985 21.2623C27.2377 21.2623 27.6748 20.8252 27.6748 20.286C27.6748 19.7468 27.2377 19.3097 26.6985 19.3097C26.1593 19.3097 25.7222 19.7468 25.7222 20.286C25.7222 20.8252 26.1593 21.2623 26.6985 21.2623Z" fill="#202036"/>
<path d="M27.0732 17.8476C27.5435 17.8476 27.9247 17.4663 27.9247 16.9961C27.9247 16.5258 27.5435 16.1445 27.0732 16.1445C26.6029 16.1445 26.2217 16.5258 26.2217 16.9961C26.2217 17.4663 26.6029 17.8476 27.0732 17.8476Z" fill="#202036"/>
<path d="M24.8272 16.7484C25.372 16.7484 25.8136 16.3068 25.8136 15.762C25.8136 15.2173 25.372 14.7756 24.8272 14.7756C24.2824 14.7756 23.8408 15.2173 23.8408 15.762C23.8408 16.3068 24.2824 16.7484 24.8272 16.7484Z" fill="#202036"/>
<path d="M21.942 16.0899C22.5788 16.0899 23.095 15.5737 23.095 14.9369C23.095 14.3001 22.5788 13.7839 21.942 13.7839C21.3053 13.7839 20.7891 14.3001 20.7891 14.9369C20.7891 15.5737 21.3053 16.0899 21.942 16.0899Z" fill="#202036"/>
<path d="M18.4143 16.111C19.1584 16.111 19.7616 15.5077 19.7616 14.7636C19.7616 14.0195 19.1584 13.4163 18.4143 13.4163C17.6701 13.4163 17.0669 14.0195 17.0669 14.7636C17.0669 15.5077 17.6701 16.111 18.4143 16.111Z" fill="#202036"/>
<path d="M13.6572 12.9089C14.5013 12.9089 15.1855 12.2247 15.1855 11.3806C15.1855 10.5365 14.5013 9.85229 13.6572 9.85229C12.8132 9.85229 12.1289 10.5365 12.1289 11.3806C12.1289 12.2247 12.8132 12.9089 13.6572 12.9089Z" fill="#202036"/>
<path d="M17.7458 12.005C18.4904 12.005 19.0941 11.4013 19.0941 10.6567C19.0941 9.91201 18.4904 9.30835 17.7458 9.30835C17.0011 9.30835 16.3975 9.91201 16.3975 10.6567C16.3975 11.4013 17.0011 12.005 17.7458 12.005Z" fill="#202036"/>
<path d="M21.2832 12.0051C21.9252 12.0051 22.4457 11.4846 22.4457 10.8425C22.4457 10.2004 21.9252 9.67993 21.2832 9.67993C20.6411 9.67993 20.1206 10.2004 20.1206 10.8425C20.1206 11.4846 20.6411 12.0051 21.2832 12.0051Z" fill="#202036"/>
<path d="M24.1823 12.6497C24.7229 12.6497 25.1611 12.2115 25.1611 11.671C25.1611 11.1304 24.7229 10.6923 24.1823 10.6923C23.6418 10.6923 23.2036 11.1304 23.2036 11.671C23.2036 12.2115 23.6418 12.6497 24.1823 12.6497Z" fill="#202036"/>
<path d="M26.4112 13.7839C26.8944 13.7839 27.2862 13.3921 27.2862 12.9089C27.2862 12.4256 26.8944 12.0338 26.4112 12.0338C25.9279 12.0338 25.5361 12.4256 25.5361 12.9089C25.5361 13.3921 25.9279 13.7839 26.4112 13.7839Z" fill="#202036"/>
<path d="M28.0393 15.0823C28.437 15.0823 28.7593 14.76 28.7593 14.3623C28.7593 13.9647 28.437 13.6423 28.0393 13.6423C27.6417 13.6423 27.3193 13.9647 27.3193 14.3623C27.3193 14.76 27.6417 15.0823 28.0393 15.0823Z" fill="#202036"/>
</svg>
