<svg width="48" height="48" viewBox="0 0 48 48" fill="none" xmlns="http://www.w3.org/2000/svg">
<path fill-rule="evenodd" clip-rule="evenodd" d="M48 24C48 10.7452 37.2548 0 24 0C10.7452 0 0 10.7452 0 24C0 37.2548 10.7452 48 24 48C37.2548 48 48 37.2548 48 24Z" fill="#E0E0FF"/>
<path fill-rule="evenodd" clip-rule="evenodd" d="M25.2062 23.2167C25.5145 23.2246 25.8074 23.3526 26.0226 23.5734C26.2379 23.7942 26.3583 24.0903 26.3583 24.3987C26.3583 24.707 26.2379 25.0032 26.0226 25.224C25.8074 25.4448 25.5145 25.5728 25.2062 25.5807H22.1496C20.7337 25.5637 19.3816 24.9893 18.3863 23.9821C17.3911 22.9748 16.833 21.6159 16.833 20.1999C16.833 18.784 17.3911 17.4251 18.3863 16.4178C19.3816 15.4106 20.7337 14.8362 22.1496 14.8192H30.0318C30.34 14.8271 30.633 14.9551 30.8482 15.1759C31.0634 15.3967 31.1839 15.6929 31.1839 16.0012C31.1839 16.3095 31.0634 16.6057 30.8482 16.8265C30.633 17.0473 30.34 17.1753 30.0318 17.1832H22.1496C21.3495 17.1832 20.5821 17.501 20.0164 18.0668C19.4506 18.6325 19.1328 19.3998 19.1328 20.1999C19.1328 21 19.4506 21.7674 20.0164 22.3331C20.5821 22.8989 21.3495 23.2167 22.1496 23.2167H25.2062Z" fill="#202036"/>
<path fill-rule="evenodd" clip-rule="evenodd" d="M22.7934 25.5806C22.4851 25.5728 22.1922 25.4448 21.977 25.224C21.7617 25.0031 21.6413 24.707 21.6413 24.3987C21.6413 24.0903 21.7617 23.7942 21.977 23.5734C22.1922 23.3526 22.4851 23.2246 22.7934 23.2167H25.8501C27.2659 23.2337 28.618 23.808 29.6133 24.8153C30.6085 25.8225 31.1666 27.1814 31.1666 28.5974C31.1666 30.0134 30.6085 31.3723 29.6133 32.3795C28.618 33.3868 27.2659 33.9611 25.8501 33.9781H17.967C17.6588 33.9702 17.3658 33.8422 17.1506 33.6214C16.9354 33.4006 16.8149 33.1045 16.8149 32.7961C16.8149 32.4878 16.9354 32.1917 17.1506 31.9708C17.3658 31.75 17.6588 31.622 17.967 31.6142H25.8501C26.6501 31.6142 27.4175 31.2963 27.9832 30.7306C28.549 30.1648 28.8668 29.3975 28.8668 28.5974C28.8668 27.7973 28.549 27.03 27.9832 26.4642C27.4175 25.8985 26.6501 25.5806 25.8501 25.5806H22.7934Z" fill="#202036"/>
</svg>
