<svg width="48" height="48" viewBox="0 0 48 48" fill="none" xmlns="http://www.w3.org/2000/svg">
<path fill-rule="evenodd" clip-rule="evenodd" d="M24 0C37.248 0 48 10.752 48 24C48 37.248 37.248 48 24 48C10.752 48 0 37.248 0 24C0 10.752 10.752 0 24 0Z" fill="#E0E0FF"/>
<path d="M23.04 34.0801V14.1121H25.152V34.0801H23.04Z" fill="#202036"/>
<path d="M34.0799 20.832L27.3599 22.656L25.8239 15.648L27.8399 15.168L28.6079 18.432C28.6079 18.432 30.4319 15.456 28.0319 12.384C26.5919 10.752 25.9199 10.752 24.2879 10.464C22.8479 10.272 19.5839 10.752 18.6239 14.592C18.2399 17.088 18.7199 18.912 21.8879 21.216L21.6959 23.904C21.6959 23.904 18.1439 21.408 17.2799 19.68C16.6079 18.336 15.3599 15.552 17.5679 11.808C18.7199 9.88799 21.0239 8.06399 25.1519 8.25599C27.1679 8.35199 32.2559 10.848 31.4879 16.704C31.2959 17.76 30.7199 19.2 30.7199 19.2L33.5039 18.624L34.0799 20.832Z" fill="#202036"/>
<path d="M30.2399 36.384C28.9919 38.208 26.6879 40.032 22.5599 39.744C20.5439 39.648 15.5519 36.96 16.5119 31.104C16.7039 30.0479 17.2799 28.6079 17.2799 28.6079L14.4959 29.1839L13.9199 26.9759L20.6399 25.3439L21.9839 32.3519L19.9679 32.7359L19.2959 29.3759C19.2959 29.3759 17.3759 32.2559 19.7759 35.424C21.1199 37.056 21.7919 37.1519 23.4239 37.4399C24.8639 37.632 28.1279 37.248 29.1839 33.504C29.6639 31.104 29.2799 29.1839 26.1119 26.7839L26.3999 24.0959C26.3999 24.0959 29.8559 26.6879 30.7199 28.4159C31.3919 29.9519 32.5439 32.6399 30.2399 36.384Z" fill="#202036"/>
</svg>
