<svg width="50" height="50" viewBox="0 0 50 50" fill="none" xmlns="http://www.w3.org/2000/svg">
<path d="M25.0001 47.9593C37.7027 47.9593 48.0002 37.6618 48.0002 24.9592C48.0002 12.2566 37.7027 1.95911 25.0001 1.95911C12.2975 1.95911 2 12.2566 2 24.9592C2 37.6618 12.2975 47.9593 25.0001 47.9593Z" fill="white" stroke="white" stroke-width="3" stroke-miterlimit="10"/>
<path d="M12.1115 18.9867H28.353C28.353 18.9867 33.9589 18.9343 30.0819 26.1644C30.0819 26.1644 27.2527 31.8227 20.2322 31.7179L24.0149 22.0568C24.0606 21.9423 24.0778 21.8184 24.0653 21.6957C24.0527 21.5731 24.0107 21.4552 23.9427 21.3523C23.8748 21.2494 23.783 21.1644 23.6752 21.1047C23.5673 21.0449 23.4466 21.0121 23.3233 21.009L18.3461 20.9252L12.0591 36.2236C12.0591 36.2236 14.1548 36.4332 15.3074 36.3284L14.6787 37.9002H17.6441C17.7263 37.9008 17.8067 37.876 17.8742 37.8291C17.9418 37.7822 17.9932 37.7155 18.0213 37.6382L18.5557 36.2236L19.8131 36.1188L19.0796 37.9002H21.9716C22.0781 37.9009 22.1822 37.8692 22.2702 37.8093C22.3582 37.7494 22.4258 37.6642 22.4641 37.5649L23.271 35.4901C23.271 35.4901 32.0728 34.0232 36.0546 26.8979C36.0546 26.8979 41.3986 18.6199 35.1115 15.686C33.8862 15.1241 32.576 14.77 31.2345 14.6381L31.968 12.8254C31.9903 12.7716 31.999 12.7132 31.9935 12.6552C31.9879 12.5973 31.9683 12.5416 31.9362 12.493C31.9042 12.4444 31.8607 12.4044 31.8096 12.3765C31.7585 12.3486 31.7014 12.3336 31.6432 12.3329H28.9293L28.091 14.5333H26.9384L27.5881 12.8254C27.608 12.7707 27.6147 12.712 27.6075 12.6543C27.6003 12.5965 27.5795 12.5412 27.5467 12.4931C27.514 12.445 27.4702 12.4054 27.4191 12.3775C27.368 12.3496 27.3109 12.3343 27.2527 12.3329H24.5284L23.6901 14.5333H15.2236C14.996 14.5326 14.7725 14.5936 14.5769 14.7098C14.3813 14.8261 14.2209 14.9933 14.1128 15.1935L12.1115 18.9867Z" fill="#202036"/>
</svg>
