<svg width="48" height="48" viewBox="0 0 48 48" fill="none" xmlns="http://www.w3.org/2000/svg">
<path d="M24 48C37.2548 48 48 37.2548 48 24C48 10.7452 37.2548 0 24 0C10.7452 0 0 10.7452 0 24C0 37.2548 10.7452 48 24 48Z" fill="white"/>
<path d="M22.2776 22.2776C23.4093 22.5548 24.5913 22.5548 25.723 22.2776C26.0393 20.9915 26.7016 19.8165 27.6381 18.88C28.5746 17.9435 29.7496 17.2812 31.0357 16.9649C31.2964 15.8988 31.3114 14.7874 31.0795 13.7146C30.8477 12.6418 30.375 11.6357 29.6974 10.7724C29.0197 9.90907 28.1547 9.21103 27.1677 8.73102C26.1806 8.25101 25.0974 8.00159 23.9999 8.00159C22.9024 8.00159 21.8192 8.25101 20.8322 8.73102C19.8451 9.21103 18.9801 9.90907 18.3024 10.7724C17.6248 11.6357 17.1521 12.6418 16.9203 13.7146C16.6884 14.7874 16.7034 15.8988 16.9641 16.9649C18.2505 17.2808 19.4258 17.943 20.3625 18.8795C21.2992 19.8161 21.9615 20.9913 22.2776 22.2776Z" fill="#7ABDF7"/>
<path d="M25.7232 25.7215C24.5914 25.4444 23.4095 25.4444 22.2778 25.7215C21.9615 27.0076 21.2992 28.1826 20.3627 29.1192C19.4262 30.0557 18.2512 30.718 16.9651 31.0342C16.7044 32.1004 16.6894 33.2118 16.9213 34.2846C17.1531 35.3574 17.6257 36.3634 18.3034 37.2267C18.9811 38.0901 19.8461 38.7881 20.8331 39.2681C21.8201 39.7481 22.9033 39.9976 24.0009 39.9976C25.0984 39.9976 26.1816 39.7481 27.1686 39.2681C28.1556 38.7881 29.0207 38.0901 29.6983 37.2267C30.376 36.3634 30.8486 35.3574 31.0805 34.2846C31.3123 33.2118 31.2974 32.1004 31.0367 31.0342C29.7503 30.7183 28.575 30.0562 27.6383 29.1196C26.7016 28.1831 26.0393 27.0079 25.7232 25.7215Z" fill="#0D74F5"/>
<path d="M32.7588 16.7565C32.1785 16.7564 31.6004 16.8261 31.0368 16.9641C30.7209 18.2502 30.0588 19.4252 29.1224 20.3616C28.186 21.298 27.011 21.9601 25.7249 22.276C25.4478 23.4078 25.4478 24.5897 25.7249 25.7215C27.011 26.0376 28.186 26.6999 29.1224 27.6364C30.0588 28.573 30.7209 29.748 31.0368 31.0342C32.0317 31.2772 33.0668 31.3064 34.0737 31.12C35.0807 30.9337 36.0367 30.5358 36.8787 29.9529C37.7207 29.3699 38.4294 28.615 38.9582 27.738C39.487 26.861 39.8238 25.8818 39.9464 24.8651C40.0691 23.8484 39.9747 22.8172 39.6695 21.8396C39.3643 20.8621 38.8553 19.9603 38.1761 19.1939C37.4969 18.4275 36.6628 17.8138 35.729 17.3934C34.7952 16.973 33.7828 16.7553 32.7588 16.7549V16.7565Z" fill="#4494F7"/>
<path d="M22.2775 25.7215C22.5546 24.5898 22.5546 23.4079 22.2775 22.2761C20.9914 21.9602 19.8163 21.2981 18.8798 20.3617C17.9432 19.4253 17.281 18.2503 16.9648 16.9642C15.8987 16.7035 14.7872 16.6886 13.7145 16.9204C12.6417 17.1523 11.6356 17.6249 10.7723 18.3026C9.90895 18.9802 9.21091 19.8453 8.7309 20.8323C8.25089 21.8193 8.00146 22.9025 8.00146 24C8.00146 25.0976 8.25089 26.1808 8.7309 27.1678C9.21091 28.1548 9.90895 29.0198 10.7723 29.6975C11.6356 30.3752 12.6417 30.8478 13.7145 31.0796C14.7872 31.3115 15.8987 31.2965 16.9648 31.0358C17.2807 29.7494 17.9428 28.5739 18.8793 27.6371C19.8159 26.7002 20.9911 26.0378 22.2775 25.7215Z" fill="#005CF4"/>
<path d="M25.7231 22.2777C27.0093 21.9614 28.1843 21.2991 29.1208 20.3626C30.0573 19.4261 30.7196 18.2511 31.0358 16.965C29.7497 17.2812 28.5747 17.9435 27.6382 18.88C26.7017 19.8165 26.0394 20.9916 25.7231 22.2777Z" fill="#323F5D"/>
<path d="M25.7231 25.7216C26.0392 27.0078 26.7014 28.1829 27.6379 29.1195C28.5745 30.056 29.7496 30.7182 31.0358 31.0343C30.7196 29.7481 30.0573 28.5731 29.1208 27.6366C28.1843 26.7001 27.0093 26.0378 25.7231 25.7216Z" fill="#242C49"/>
<path d="M22.2775 22.2777C21.9613 20.9916 21.299 19.8165 20.3625 18.88C19.426 17.9435 18.251 17.2812 16.9648 16.965C17.2811 18.2511 17.9434 19.4261 18.8799 20.3626C19.8164 21.2991 20.9914 21.9614 22.2775 22.2777Z" fill="#202036"/>
<path d="M22.2775 25.7216C20.9914 26.0378 19.8164 26.7001 18.8799 27.6366C17.9434 28.5731 17.2811 29.7481 16.9648 31.0343C18.251 30.718 19.426 30.0557 20.3625 29.1192C21.299 28.1827 21.9613 27.0077 22.2775 25.7216Z" fill="#1F2440"/>
<path opacity="0.8" d="M22.2776 22.2776C23.4093 22.5548 24.5913 22.5548 25.723 22.2776C26.0393 20.9915 26.7016 19.8165 27.6381 18.88C28.5746 17.9435 29.7496 17.2812 31.0357 16.9649C31.2964 15.8988 31.3114 14.7874 31.0795 13.7146C30.8477 12.6418 30.375 11.6357 29.6974 10.7724C29.0197 9.90907 28.1547 9.21103 27.1677 8.73102C26.1806 8.25101 25.0974 8.00159 23.9999 8.00159C22.9024 8.00159 21.8192 8.25101 20.8322 8.73102C19.8451 9.21103 18.9801 9.90907 18.3024 10.7724C17.6248 11.6357 17.1521 12.6418 16.9203 13.7146C16.6884 14.7874 16.7034 15.8988 16.9641 16.9649C18.2505 17.2808 19.4258 17.943 20.3625 18.8795C21.2992 19.8161 21.9615 20.9913 22.2776 22.2776Z" fill="#202036"/>
<path opacity="0.95" d="M25.7232 25.7215C24.5914 25.4444 23.4095 25.4444 22.2778 25.7215C21.9615 27.0076 21.2992 28.1826 20.3627 29.1192C19.4262 30.0557 18.2512 30.718 16.9651 31.0342C16.7044 32.1004 16.6894 33.2118 16.9213 34.2846C17.1531 35.3574 17.6257 36.3634 18.3034 37.2267C18.9811 38.0901 19.8461 38.7881 20.8331 39.2681C21.8201 39.7481 22.9033 39.9976 24.0009 39.9976C25.0984 39.9976 26.1816 39.7481 27.1686 39.2681C28.1556 38.7881 29.0207 38.0901 29.6983 37.2267C30.376 36.3634 30.8486 35.3574 31.0805 34.2846C31.3123 33.2118 31.2974 32.1004 31.0367 31.0342C29.7503 30.7183 28.575 30.0562 27.6383 29.1196C26.7016 28.1831 26.0393 27.0079 25.7232 25.7215Z" fill="#202036"/>
<path opacity="0.9" d="M32.7588 16.7565C32.1785 16.7564 31.6004 16.8261 31.0368 16.9641C30.7209 18.2502 30.0588 19.4252 29.1224 20.3616C28.186 21.298 27.011 21.9601 25.7249 22.276C25.4478 23.4078 25.4478 24.5897 25.7249 25.7215C27.011 26.0376 28.186 26.6999 29.1224 27.6364C30.0588 28.573 30.7209 29.748 31.0368 31.0342C32.0317 31.2772 33.0668 31.3064 34.0737 31.12C35.0807 30.9337 36.0367 30.5358 36.8787 29.9529C37.7207 29.3699 38.4294 28.615 38.9582 27.738C39.487 26.861 39.8238 25.8818 39.9464 24.8651C40.0691 23.8484 39.9747 22.8172 39.6695 21.8396C39.3643 20.8621 38.8553 19.9603 38.1761 19.1939C37.4969 18.4275 36.6628 17.8138 35.729 17.3934C34.7952 16.973 33.7828 16.7553 32.7588 16.7549V16.7565Z" fill="#202036"/>
<path d="M22.2775 25.7215C22.5546 24.5898 22.5546 23.4079 22.2775 22.2761C20.9914 21.9602 19.8163 21.2981 18.8798 20.3617C17.9432 19.4253 17.281 18.2503 16.9648 16.9642C15.8987 16.7035 14.7872 16.6886 13.7145 16.9204C12.6417 17.1523 11.6356 17.6249 10.7723 18.3026C9.90895 18.9802 9.21091 19.8453 8.7309 20.8323C8.25089 21.8193 8.00146 22.9025 8.00146 24C8.00146 25.0976 8.25089 26.1808 8.7309 27.1678C9.21091 28.1548 9.90895 29.0198 10.7723 29.6975C11.6356 30.3752 12.6417 30.8478 13.7145 31.0796C14.7872 31.3115 15.8987 31.2965 16.9648 31.0358C17.2807 29.7494 17.9428 28.5739 18.8793 27.6371C19.8159 26.7002 20.9911 26.0378 22.2775 25.7215Z" fill="#202036"/>
</svg>
