<svg width="48" height="48" viewBox="0 0 48 48" fill="none" xmlns="http://www.w3.org/2000/svg">
<path fill-rule="evenodd" clip-rule="evenodd" d="M48 24.0003C48 10.7455 37.2548 0.000305176 24 0.000305176C10.7452 0.000305176 0 10.7455 0 24.0003C0 37.2551 10.7452 48.0003 24 48.0003C37.2548 48.0003 48 37.2551 48 24.0003Z" fill="white"/>
<path fill-rule="evenodd" clip-rule="evenodd" d="M30.2334 24.457C29.8832 23.4524 29.2781 22.556 28.4774 21.8555L28.1733 21.6018L28.1564 21.5853C28.0592 21.5064 27.9577 21.433 27.8524 21.3654L27.8355 21.3485C27.7343 21.2809 27.6329 21.2136 27.5145 21.1459C27.4976 21.1459 27.4976 21.129 27.482 21.129C27.3786 21.066 27.2714 21.0095 27.161 20.9599C27.1441 20.9599 27.1441 20.9433 27.1285 20.9433C27.027 20.8926 26.9087 20.8419 26.7906 20.7911C26.7737 20.7911 26.7737 20.7742 26.7581 20.7742C26.6567 20.7417 26.5552 20.6897 26.4541 20.6559C26.18 20.5517 25.897 20.4725 25.6086 20.4195C25.3891 20.8422 25.085 21.2136 24.7471 21.5345C25.2574 21.5727 25.7583 21.6925 26.2307 21.8893C26.4995 22.0037 26.759 22.1388 27.0069 22.2935C27.0192 22.2956 27.0306 22.3015 27.0394 22.3104C27.107 22.343 27.1574 22.395 27.2251 22.4457C27.2572 22.4629 27.2858 22.4858 27.3096 22.5134C27.37 22.553 27.4265 22.5982 27.4784 22.6483C27.5109 22.6808 27.5461 22.699 27.5799 22.7329C27.6306 22.7836 27.6813 22.8174 27.7321 22.8681L27.8332 22.9693L27.9685 23.1046L28.0699 23.2057C28.1049 23.2544 28.1444 23.2997 28.188 23.341C28.2205 23.3735 28.2556 23.4255 28.2894 23.4593L28.3909 23.6112C28.4234 23.6619 28.4582 23.6958 28.4751 23.7465L28.5766 23.8984C28.6091 23.9491 28.6273 23.9998 28.6611 24.0336C28.6937 24.0844 28.7119 24.1351 28.7454 24.1855C28.7789 24.2359 28.7961 24.287 28.8299 24.3377C28.8468 24.3884 28.8806 24.4391 28.8976 24.4896C28.9301 24.5572 28.9483 24.6248 28.9821 24.6756C29.1231 25.0224 29.2196 25.3857 29.2692 25.7568L29.4211 26.348C29.4887 26.6013 30.0969 28.7636 31.516 29.49C33.1377 30.3355 35.283 31.382 36.1275 31.7875L24.9965 38.4442V33.8831C24.9965 33.1566 26.4326 32.312 27.0914 32.0249L27.124 32.008C27.2589 31.9404 27.3942 31.8727 27.5291 31.7885L27.5799 31.756C27.8675 31.5837 28.1389 31.3859 28.3909 31.1648C28.4078 31.1479 28.4413 31.1322 28.4582 31.0971C28.4907 31.0802 28.5089 31.0464 28.5428 31.0295C28.6273 30.9619 28.695 30.8776 28.7792 30.81L28.8117 30.7775C28.8993 30.6954 28.9786 30.6049 29.0484 30.5072C29.065 30.4747 29.0988 30.4565 29.1158 30.4227C29.1834 30.355 29.2341 30.2705 29.3018 30.1863C29.3187 30.1694 29.3343 30.1355 29.3525 30.1186L29.5551 29.8146C29.5551 29.7977 29.572 29.7977 29.572 29.7821C29.6565 29.6468 29.7408 29.4949 29.8253 29.3593C29.4874 28.9541 29.2341 28.5138 29.0315 28.1093C28.945 28.36 28.8376 28.603 28.7106 28.8357C28.6598 28.9372 28.5922 29.0383 28.5415 29.1398C28.5246 29.1567 28.5246 29.1723 28.5089 29.1723C28.4567 29.2539 28.4004 29.3328 28.3402 29.4087C28.3233 29.4256 28.3077 29.4595 28.2894 29.4764C28.2369 29.557 28.1744 29.6308 28.1034 29.6959C28.0868 29.7128 28.0868 29.7284 28.0709 29.7284C27.6643 30.1917 27.1707 30.5706 26.618 30.8435L26.5165 30.8942C26.2294 31.0123 23.7462 32.1442 23.7462 33.8502V38.4104L12.5973 31.7716C13.3238 31.3322 15.4183 30.0806 17.1415 29.5417C17.8173 29.3219 19.253 30.2344 20.064 30.8932L20.1144 30.9436C20.2192 31.0483 20.3322 31.1444 20.4523 31.2311L20.4848 31.2636C20.7382 31.4665 21.0087 31.6691 21.3128 31.8213L21.5154 31.9225C21.5277 31.9245 21.5391 31.9304 21.5479 31.9394C21.7351 32.0406 21.9277 32.1315 22.1248 32.2119C22.1573 32.2288 22.1755 32.2288 22.2093 32.2444C22.2262 32.2444 22.2418 32.2613 22.277 32.2613C22.5593 32.3614 22.8469 32.446 23.1384 32.515C23.3579 32.0922 23.6789 31.7208 24.0164 31.3999C23.5421 31.3688 23.0752 31.2663 22.6314 31.0958C22.6145 31.0789 22.5807 31.0789 22.5638 31.0633C22.5102 31.0479 22.4589 31.0252 22.4116 30.9957C22.3947 30.9788 22.3609 30.9788 22.344 30.9632C22.2974 30.9441 22.2523 30.9216 22.209 30.8958C21.8777 30.7349 21.566 30.5364 21.2799 30.3043L20.8409 29.8965C20.434 29.5384 19.9926 29.2216 19.5232 28.9505C18.426 28.3255 17.4963 28.1226 16.7867 28.3421C15.3169 28.8153 13.6457 29.7105 12.6311 30.3017L23.7634 10.3024V19.0696C23.7634 19.3736 23.3082 20.1847 21.77 20.8773L21.6689 20.9277C21.5167 20.995 21.3814 21.0796 21.2295 21.1641L21.197 21.1811C20.9067 21.357 20.63 21.5547 20.3694 21.7722C20.2056 21.9056 20.0533 22.0526 19.9141 22.2116L19.8972 22.2285C19.7477 22.3734 19.6113 22.5312 19.4894 22.7L19.4725 22.7169C19.4052 22.8015 19.3545 22.8857 19.2868 22.9703C19.2868 22.9872 19.2699 22.9872 19.2699 23.0028C19.2192 23.0873 19.1685 23.155 19.1177 23.2392C19.1177 23.2561 19.1011 23.2561 19.1011 23.2717L18.949 23.5293C18.932 23.5462 18.932 23.5618 18.9164 23.5969C18.8657 23.6815 18.8319 23.766 18.7981 23.8336C18.7961 23.846 18.7903 23.8573 18.7815 23.8662C18.749 23.9507 18.7138 24.0184 18.68 24.1029C18.6631 24.1354 18.6631 24.1536 18.6475 24.1871L18.546 24.4408C18.5291 24.4733 18.5291 24.4912 18.5135 24.525C18.4985 24.5894 18.4759 24.6519 18.4462 24.711C18.4293 24.7435 18.4293 24.7786 18.4137 24.8121C18.3968 24.8967 18.363 24.9812 18.346 25.0489C18.3291 25.0814 18.3291 25.1331 18.3135 25.1669C18.2966 25.2177 18.2966 25.2853 18.281 25.336C18.2654 25.3868 18.2641 25.4375 18.2485 25.4879C18.2316 25.5555 18.2316 25.6232 18.216 25.6908C18.216 25.7415 18.1991 25.775 18.1991 25.8258C18.1991 25.8934 18.1821 25.9441 18.1821 26.0118C18.1849 26.0742 18.1792 26.1366 18.1652 26.1975V26.4508C18.1619 26.7563 18.1845 27.0616 18.2329 27.3633C18.6722 27.4644 19.1281 27.6504 19.6182 27.8868C19.485 27.4424 19.4112 26.9822 19.3987 26.5184V26.4339C19.3959 26.321 19.4015 26.208 19.4156 26.096V26.0118C19.4182 25.9153 19.4291 25.8192 19.4481 25.7246V25.6921C19.465 25.5907 19.4806 25.4892 19.4989 25.3711C19.4989 25.3386 19.5158 25.3204 19.5158 25.2866C19.5327 25.202 19.5665 25.1178 19.5834 25.0333C19.5834 25.0164 19.6003 25.0008 19.6003 24.9825L19.7018 24.6785C19.7187 24.6616 19.7187 24.6278 19.7343 24.6108C19.7668 24.5263 19.8016 24.4421 19.8354 24.3744C19.8523 24.3575 19.8523 24.3419 19.8679 24.3068C19.9187 24.2053 19.9525 24.1211 20.0201 24.0366C20.037 24.0197 20.037 24.004 20.0527 23.9858C20.1031 23.9013 20.1369 23.834 20.1876 23.7494C20.2045 23.7325 20.2045 23.7169 20.2201 23.6987C20.2765 23.6103 20.3385 23.5257 20.4058 23.4454C20.4058 23.4431 20.4062 23.4409 20.407 23.4388C20.4078 23.4368 20.4091 23.4349 20.4107 23.4333C20.4122 23.4317 20.4141 23.4305 20.4162 23.4296C20.4183 23.4288 20.4205 23.4284 20.4227 23.4285C20.4904 23.3439 20.5411 23.2763 20.6087 23.192C20.6256 23.1751 20.6256 23.1595 20.6413 23.1413C20.9447 22.8047 21.2912 22.5094 21.6718 22.2633L22.1953 22.01C22.4825 21.8919 24.9487 20.7261 24.9487 19.0201V10.305L36.1796 30.4708C35.1829 29.9807 33.4093 29.1024 32.0409 28.3928C31.2471 27.9876 30.7232 26.5516 30.5713 26.028L30.4191 25.4199C30.4191 25.099 30.3349 24.778 30.2334 24.457ZM37.8351 30.8087L25.4528 8.59449C25.3469 8.4002 25.1906 8.23804 25.0003 8.12506C24.81 8.01208 24.5928 7.95245 24.3715 7.95245C24.1502 7.95245 23.933 8.01208 23.7428 8.12506C23.5525 8.23804 23.3962 8.4002 23.2903 8.59449L10.9079 30.8087C10.587 31.383 10.7726 32.1264 11.3473 32.4642L23.7465 39.8786C23.9424 39.9892 24.1635 40.0474 24.3884 40.0474C24.6134 40.0474 24.8345 39.9892 25.0304 39.8786L37.4127 32.4811C37.9704 32.1264 38.173 31.383 37.8355 30.8087H37.8351Z" fill="#202036"/>
</svg>
