<svg width="48" height="48" viewBox="0 0 48 48" fill="none" xmlns="http://www.w3.org/2000/svg">
<path d="M24.2505 44.1141C13.3141 44.1141 4.38672 35.1779 4.38672 24.2506C4.38672 13.3143 13.3232 4.38684 24.2505 4.38684C35.1868 4.38684 44.114 13.3233 44.114 24.2506C44.114 35.1869 35.1868 44.1141 24.2505 44.1141Z" fill="white"/>
<path d="M24 48C10.8 48 0 37.2 0 24C0 10.8 10.8 0 24 0C37.2 0 48 10.8 48 24C48 37.2 37.2 48 24 48ZM24 5.33645C13.7364 5.33645 5.33645 13.7364 5.33645 24C5.33645 34.2636 13.7364 42.6636 24 42.6636C34.2636 42.6636 42.6636 34.2636 42.6636 24C42.6636 13.7364 34.2636 5.33645 24 5.33645Z" fill="white"/>
<path d="M22.4441 30.5009H32.8442V35.7011H26.7079V40.1009H21.3714V35.8374H14.9715C14.9715 34.1009 14.7079 32.3737 15.1078 30.7738C15.2441 29.9737 16.1715 29.1736 16.844 28.3738C18.8441 25.9738 20.8442 23.5738 22.9806 21.1738C23.7804 20.2374 24.5805 19.4373 25.5169 18.3738H15.5169V13.1737H21.3804V8.77441H26.5806V13.0368H32.9805C32.9805 14.7731 33.2441 16.5005 32.8442 18.1004C32.7079 18.9005 31.7805 19.7004 31.1077 20.5004C29.1079 22.9004 27.1078 25.3004 24.9714 27.7004C24.1712 28.6374 23.3715 29.5646 22.4441 30.5009Z" fill="#202036"/>
</svg>
