<svg xmlns="http://www.w3.org/2000/svg" xmlns:xlink="http://www.w3.org/1999/xlink" width="48" height="48" viewBox="0 0 48 48" version="1.1">
    <g id="surface1">
        <path style=" stroke:none;fill-rule:nonzero;fill:rgb(100%,0%,0%);fill-opacity:1;" d="M 36.601562 11.421875 C 35.820312 10.640625 34.558594 10.640625 33.78125 11.421875 L 24 21.179688 L 14.21875 11.398438 C 13.441406 10.621094 12.179688 10.621094 11.398438 11.398438 C 10.621094 12.179688 10.621094 13.441406 11.398438 14.21875 L 21.179688 24 L 11.398438 33.78125 C 10.621094 34.558594 10.621094 35.820312 11.398438 36.601562 C 12.179688 37.378906 13.441406 37.378906 14.21875 36.601562 L 24 26.820312 L 33.78125 36.601562 C 34.558594 37.378906 35.820312 37.378906 36.601562 36.601562 C 37.378906 35.820312 37.378906 34.558594 36.601562 33.78125 L 26.820312 24 L 36.601562 14.21875 C 37.359375 13.460938 37.359375 12.179688 36.601562 11.421875 Z M 36.601562 11.421875 "/>
    </g>
</svg>
