<svg width="21" height="16" viewBox="0 0 21 16" fill="none" xmlns="http://www.w3.org/2000/svg">
<path d="M20.125 8.45837H0.875C0.391998 8.45837 0 8.06638 0 7.58337C0 7.10037 0.391998 6.70837 0.875 6.70837H20.125C20.608 6.70837 21 7.10037 21 7.58337C21 8.06638 20.608 8.45837 20.125 8.45837Z" fill="#E0E0FF" fill-opacity="0.6"/>
<path d="M20.125 1.75H0.875C0.391998 1.75 0 1.358 0 0.875C0 0.391998 0.391998 0 0.875 0H20.125C20.608 0 21 0.391998 21 0.875C21 1.358 20.608 1.75 20.125 1.75Z" fill="#E0E0FF" fill-opacity="0.6"/>
<path d="M20.125 15.1666H0.875C0.391998 15.1666 0 14.7746 0 14.2916C0 13.8086 0.391998 13.4166 0.875 13.4166H20.125C20.608 13.4166 21 13.8086 21 14.2916C21 14.7746 20.608 15.1666 20.125 15.1666Z" fill="#E0E0FF" fill-opacity="0.6"/>
</svg>
