<svg width="20" height="20" viewBox="0 0 20 20" fill="none" xmlns="http://www.w3.org/2000/svg">
<path fill-rule="evenodd" clip-rule="evenodd" d="M14.0705 3.47793C13.805 2.84068 13.0731 2.53933 12.4359 2.80485L5.61077 5.64866L5.61045 5.64787L3.83404 6.38368C3.14433 6.66937 2.65836 7.28644 2.53199 8.00709C2.511 8.11271 2.5 8.22192 2.5 8.3337V15.8337C2.5 16.7542 3.24619 17.5004 4.16667 17.5004H15.8333C16.7538 17.5004 17.5 16.7542 17.5 15.8337V8.3337C17.5 7.41323 16.7538 6.66703 15.8333 6.66703H14.1667V3.9587C14.1667 3.79367 14.134 3.63027 14.0705 3.47793ZM12.5 6.66703H7.5L12.3615 4.64139C12.4274 4.61395 12.5 4.66234 12.5 4.7337V6.66703ZM5.41667 8.3337H13.3333H15.5333C15.699 8.3337 15.8333 8.46801 15.8333 8.6337V15.5337C15.8333 15.6994 15.699 15.8337 15.5333 15.8337H4.46667C4.30098 15.8337 4.16667 15.6994 4.16667 15.5337V8.6337C4.16667 8.46801 4.30098 8.3337 4.46667 8.3337H5.41667ZM13.3333 12.0837C13.3333 12.7741 12.7737 13.3337 12.0833 13.3337C11.393 13.3337 10.8333 12.7741 10.8333 12.0837C10.8333 11.3933 11.393 10.8337 12.0833 10.8337C12.7737 10.8337 13.3333 11.3933 13.3333 12.0837Z" fill="#141029" fill-opacity="0.4"/>
</svg>
