<svg width="25" height="19" viewBox="0 0 25 19" fill="none" xmlns="http://www.w3.org/2000/svg">
<path d="M12.5593 18.9072C14.1723 18.9072 15.48 17.5996 15.48 15.9866C15.48 14.3735 14.1723 13.0659 12.5593 13.0659C10.9463 13.0659 9.63867 14.3735 9.63867 15.9866C9.63867 17.5996 10.9463 18.9072 12.5593 18.9072Z" fill="#A19FA9"/>
<path d="M19.5392 8.94983C19.4959 8.90528 19.4501 8.86556 19.4056 8.82462L19.2744 8.70062C19.2527 8.67775 19.2286 8.6609 19.2009 8.63923C15.4243 5.20814 9.64444 5.34417 6.03999 8.94863L5.61742 9.3724L5.03233 9.95749C4.31963 10.6702 4.32324 11.8319 5.03715 12.5459C5.75226 13.2622 6.91401 13.2634 7.62551 12.5507L8.63437 11.5418C10.9266 9.2508 14.655 9.2508 16.946 11.5406L17.6744 12.2461C18.3799 12.9516 19.5308 12.9504 20.2399 12.2401C20.583 11.8982 20.772 11.4419 20.7732 10.9567C20.7744 10.474 20.5878 10.0177 20.2447 9.67698L19.5392 8.94983Z" fill="#A19FA9"/>
<path d="M24.515 5.33936L23.9082 4.73259C23.9058 4.73019 23.9046 4.72657 23.8998 4.72537L23.4207 4.24381C23.3364 4.16075 23.2449 4.08851 23.1486 4.02591C16.9931 -1.37836 7.63042 -1.21222 1.67116 4.52071C1.64227 4.5472 1.60976 4.56525 1.58087 4.59415L0.485327 5.69089C-0.164774 6.33979 -0.161162 7.3956 0.49255 8.04931C1.14506 8.70182 2.20087 8.70664 2.85097 8.05533L3.94651 6.961C3.95374 6.95137 3.95976 6.94294 3.96698 6.93692C8.78615 2.28147 16.4309 2.25258 21.2886 6.84181L22.1505 7.705C22.7994 8.3539 23.8577 8.35149 24.5102 7.69898C25.1615 7.04527 25.1639 5.98825 24.515 5.33936Z" fill="#A19FA9"/>
</svg>
