<svg width="25" height="19" fill="none" xmlns="http://www.w3.org/2000/svg"><path d="M12.56 18.907a2.92 2.92 0 100-5.841 2.92 2.92 0 000 5.841z" fill="#9090A8"/><path d="M19.54 8.95c-.044-.045-.09-.084-.134-.125l-.131-.124c-.022-.023-.046-.04-.074-.062a9.528 9.528 0 00-13.16.31l-.423.423-.585.585a1.833 1.833 0 00.004 2.589 1.83 1.83 0 002.589.005l1.009-1.01a5.886 5.886 0 018.311 0l.729.705a1.815 1.815 0 002.565-.006c.343-.342.532-.798.533-1.283a1.785 1.785 0 00-.528-1.28l-.706-.727z" fill="#9090A8"/><path d="M24.515 5.34l-.607-.607c-.002-.003-.003-.006-.008-.008l-.48-.481a1.73 1.73 0 00-.271-.218C16.993-1.378 7.63-1.212 1.67 4.52c-.029.026-.061.044-.09.073L.485 5.691a1.667 1.667 0 00.008 2.358 1.667 1.667 0 002.358.006l1.096-1.094c.007-.01.013-.018.02-.024 4.82-4.656 12.464-4.684 17.322-.095l.861.863a1.67 1.67 0 002.36-.006c.651-.654.654-1.71.005-2.36z" fill="#9090A8"/></svg>