<svg width="21" height="24" fill="none" xmlns="http://www.w3.org/2000/svg"><path fill-rule="evenodd" clip-rule="evenodd" d="M19.979 5.403a.795.795 0 01.053.313.828.828 0 01-.051.307l-.008.023a.426.426 0 00-.009.029.316.316 0 01-.012.038c-.02.045-.045.088-.07.13l-.01.02-.015.027a1.07 1.07 0 01-.128.156l-4.685 4.684a1.027 1.027 0 01-1.458 0 1.031 1.031 0 010-1.458l2.925-2.925H1.25a1.031 1.031 0 110-2.062h15.26L13.587 1.76A1.031 1.031 0 0115.045.302l4.684 4.684c.047.047.09.1.128.156l.014.026.01.02c.027.043.051.085.07.13.006.013.01.026.013.04a.358.358 0 00.015.045zM3.52 16.906h15.26a1.031 1.031 0 010 2.063H3.521l2.924 2.924a1.031 1.031 0 01-1.458 1.459L.303 18.668a1.064 1.064 0 01-.142-.181l-.01-.02a1.046 1.046 0 01-.071-.132c-.005-.012-.009-.025-.012-.037a.363.363 0 00-.009-.03l-.007-.02a.771.771 0 01-.031-.106 1.025 1.025 0 010-.408.815.815 0 01.038-.127.412.412 0 00.01-.03.333.333 0 01.01-.036.96.96 0 01.082-.152l.013-.025c.038-.056.081-.108.129-.156l4.684-4.685a1.03 1.03 0 111.459 1.459L3.52 16.906z" fill="#00BBFF"/></svg>
