<svg width="32" height="30" viewBox="0 0 32 30" fill="none" xmlns="http://www.w3.org/2000/svg">
<path d="M13.823 27.9921L0.542965 0.943131C0.327169 0.511539 0.65164 0.000770569 1.12981 0.000770569H5.73138C5.97823 0.000770569 6.20955 0.140495 6.31822 0.356291L16.0166 19.9798C16.8814 21.7403 19.3824 21.7403 20.2472 19.9798L29.9145 0.371815C30.0232 0.156019 30.2545 0.0162955 30.5013 0.0162955H31.0727C31.4127 0.0162955 31.6285 0.371815 31.4748 0.665236L18.055 27.9921C17.1903 29.7511 14.6877 29.7511 13.823 27.9921Z" fill="white"/>
<path opacity="0.1" d="M13.823 27.9916L6.31823 0.371313C6.20955 0.139992 5.96271 0.0157928 5.76244 0.0157928H1.14533C0.636117 0.0157928 0.342696 0.525009 0.542967 0.958154L13.823 27.9916Z" fill="white"/>
<path opacity="0.1" d="M16.0166 19.993L0.542938 0.942361C0.358192 0.495244 0.636088 0.0465747 1.06768 0H5.74688C6.00925 0.0155249 6.20952 0.184746 6.30267 0.35552L16.0166 19.993Z" fill="white"/>
</svg>
