<svg width="32" height="32" viewBox="0 0 32 32" fill="none" xmlns="http://www.w3.org/2000/svg">
<path fill-rule="evenodd" clip-rule="evenodd" d="M26.4111 13.7261C26.312 13.7219 26.217 13.7653 26.1553 13.8429C25.6508 14.1232 25.2263 14.6382 24.9162 15.1381C24.8676 15.1781 24.8342 15.2335 24.8216 15.2952C24.7673 15.3886 24.7176 15.4803 24.6727 15.5685C24.4877 15.9219 24.3403 16.2937 24.233 16.6779C24.1446 16.8671 24.0742 17.0642 24.0227 17.2666C23.9245 17.4348 23.8482 17.615 23.7956 17.8026C23.7898 17.8244 23.785 17.8466 23.7803 17.8688C23.7788 17.8757 23.7773 17.8827 23.7757 17.8896C23.7473 17.9245 23.7273 17.9655 23.7173 18.0093C23.5629 18.6464 23.5294 19.3068 23.6187 19.9562C23.5844 20.9302 23.7381 21.9016 24.0712 22.8175C24.1948 23.1524 24.3434 23.4776 24.5156 23.7904C24.0421 24.4845 23.5049 25.133 22.9109 25.7273C17.6584 30.9828 9.66771 31.3302 4.41516 26.0777C-0.837397 20.8251 -1.36294 12.0753 3.88961 6.82276C9.14217 1.57021 17.6555 1.45342 22.9109 6.70597C24.7983 8.58727 26.0811 10.9892 26.595 13.6041C26.5419 13.6403 26.4893 13.6777 26.4385 13.7168L26.4111 13.7261ZM7.92293 21.6928C10.9481 24.718 15.853 24.718 18.8782 21.6928C20.331 20.2401 21.1472 18.2697 21.1472 16.2152C21.1472 14.1606 20.331 12.1903 18.8782 10.7375C15.853 7.71229 10.9481 7.7123 7.92293 10.7375C4.89771 13.7627 4.89771 18.6676 7.92293 21.6928Z" fill="url(#paint0_linear)"/>
<path d="M27.8744 9.35066C28.821 8.89557 29.9412 8.99773 30.7899 9.61656C31.6385 10.2354 32.0783 11.2707 31.9344 12.3111C31.7905 13.3515 31.0863 14.2286 30.1016 14.5939V14.5997C26.988 15.9064 25.0785 19.0784 25.381 22.4415L19.7395 22.9086C19.4411 19.4809 20.4064 15.9428 22.793 13.0984C24.1639 11.462 25.9061 10.177 27.8744 9.35066Z" fill="url(#paint1_linear)"/>
<path d="M22.5051 12.2283L22.5115 12.2195C22.5137 12.2168 22.5156 12.2138 22.5174 12.2108C23.4246 10.9235 25.2035 10.6154 26.4908 11.5226C27.7781 12.4298 28.0862 14.2088 27.179 15.496C26.2955 16.682 26.0467 17.6899 25.993 18.4157C25.9346 19.2274 25.965 19.2753 25.9124 20.4794C25.8721 21.409 25.6023 22.2096 25.3728 22.6371C24.6961 23.896 21.986 23.8703 20.2926 22.2499C20.1956 22.0603 20.0997 21.8626 20.0047 21.6566C19.8945 21.4176 19.7927 21.184 19.6993 20.9559C19.694 20.9372 19.7174 21.0388 19.6993 20.9559C19.673 20.8327 19.6678 20.7059 19.6841 20.581C19.6923 20.4946 19.6923 20.4946 19.7069 20.2622C19.7384 19.7524 19.7553 19.1848 19.955 18.3352C19.9965 18.153 20.0415 17.955 20.1191 17.6666C20.2867 17.0499 20.4747 16.5226 20.7077 15.8692C20.7107 15.8686 21.5434 13.3962 22.5051 12.2283Z" fill="url(#paint2_linear)"/>
<path d="M0.91269 11.6694C0.440882 12.9313 0.160981 14.2568 0.0823255 15.6017C0.0764861 15.7611 0.0688948 15.9199 0.0618875 16.0805C-0.0982965 22.9404 4.9309 28.8211 11.7325 29.7272C12.3749 29.7512 13.7845 29.8989 15.1644 29.7179C16.7282 29.5129 18.2511 28.9693 18.5606 28.8636C18.8775 28.7351 19.1905 28.5942 19.4996 28.4408C20.1839 28.0688 21.2023 27.3997 21.8277 26.9634C22.0882 26.7824 22.5232 26.4011 23.019 25.9053C23.9673 24.9506 24.7709 23.8623 25.4044 22.675C25.5761 22.2869 25.6505 21.8627 25.621 21.4394C25.5147 20.0759 24.2598 18.863 22.9746 18.7754C21.912 18.7003 20.8962 19.2239 20.341 20.1331C20.0305 20.57 19.6871 20.9827 19.3139 21.3675C18.9728 21.7179 17.4032 23.2881 15.5416 23.8785C12.3083 24.9056 9.10948 22.6978 8.69079 22.4005C7.01546 21.468 0.91269 11.6694 0.91269 11.6694Z" fill="url(#paint3_linear)"/>
<path d="M26.7002 7.38628C28.1875 7.38628 29.3933 6.18052 29.3933 4.69314C29.3933 3.20576 28.1875 2 26.7002 2C25.2128 2 24.007 3.20576 24.007 4.69314C24.007 6.18052 25.2128 7.38628 26.7002 7.38628Z" fill="url(#paint4_linear)"/>
<path d="M19.6625 20.9104C19.6549 20.9215 19.6596 20.8327 19.6444 20.852C18.1717 22.8444 16.0724 23.5381 15.732 23.6456C15.6292 23.6777 14.5343 23.9959 13.4493 23.9959C9.44323 24.0142 6.08406 20.9749 5.70263 16.987C5.3212 12.999 8.04336 9.37814 11.9803 8.63669C15.9172 7.89525 19.7701 10.2779 20.8654 14.1314C20.873 14.1577 21.0184 14.779 21.0727 14.8491C21.1311 14.6932 21.1696 14.6155 21.2374 14.4625C21.3051 14.3095 21.3874 14.0537 21.4774 13.913C21.4772 13.9116 21.4772 13.9103 21.4774 13.9089L21.6169 13.5983C21.6169 13.5983 21.6093 13.5837 21.5323 13.2602C21.468 12.9939 21.4634 12.9635 21.4616 12.9553C20.6044 7.93344 16.2196 4.12089 10.9571 4.146C8.14358 4.15959 5.45073 5.29035 3.47098 7.28948C1.49123 9.28862 0.386763 11.9924 0.40058 14.8059C0.430361 21.1813 6.20029 25.3892 11.0581 25.3635C15.8861 25.3378 19.0178 21.7092 19.4972 21.1264" fill="url(#paint5_linear)"/>
<defs>
<linearGradient id="paint0_linear" x1="26.8486" y1="2.69313" x2="0.203544" y2="2.69313" gradientUnits="userSpaceOnUse">
<stop offset="0.09" stop-color="#6DC1D6"/>
<stop offset="0.31" stop-color="#72C6D7"/>
<stop offset="0.61" stop-color="#589AC5"/>
<stop offset="1" stop-color="#3864AF"/>
</linearGradient>
<linearGradient id="paint1_linear" x1="31.7303" y1="25.4213" x2="35.0043" y2="10.5753" gradientUnits="userSpaceOnUse">
<stop offset="0.47" stop-color="#FFDF7F"/>
<stop offset="0.57" stop-color="#FFBE6B"/>
<stop offset="0.69" stop-color="#FF9E58"/>
<stop offset="0.8" stop-color="#FF884A"/>
<stop offset="0.91" stop-color="#FF7A42"/>
<stop offset="1" stop-color="#FF753F"/>
</linearGradient>
<linearGradient id="paint2_linear" x1="27.8391" y1="11.3759" x2="20.9607" y2="12.0184" gradientUnits="userSpaceOnUse">
<stop offset="0.01" stop-color="#E670A7"/>
<stop offset="0.12" stop-color="#CB65A2"/>
<stop offset="0.31" stop-color="#A2559B"/>
<stop offset="0.5" stop-color="#824895"/>
<stop offset="0.68" stop-color="#6C3F90"/>
<stop offset="0.85" stop-color="#5E3A8E"/>
<stop offset="1" stop-color="#59388D"/>
</linearGradient>
<linearGradient id="paint3_linear" x1="10.2572" y1="31.0964" x2="23.7287" y2="15.6389" gradientUnits="userSpaceOnUse">
<stop stop-color="#15ADFF"/>
<stop offset="0.06" stop-color="#40A3D4"/>
<stop offset="0.13" stop-color="#6D99A7"/>
<stop offset="0.21" stop-color="#949080"/>
<stop offset="0.3" stop-color="#B5885F"/>
<stop offset="0.38" stop-color="#D08244"/>
<stop offset="0.48" stop-color="#E57D2F"/>
<stop offset="0.59" stop-color="#F47A20"/>
<stop offset="0.72" stop-color="#FC7818"/>
<stop offset="0.92" stop-color="#FF7715"/>
</linearGradient>
<linearGradient id="paint4_linear" x1="27.3583" y1="8.44496" x2="30.452" y2="4.03504" gradientUnits="userSpaceOnUse">
<stop stop-color="#55398D"/>
<stop offset="1" stop-color="#C05B9D"/>
</linearGradient>
<linearGradient id="paint5_linear" x1="0.394555" y1="25.3638" x2="21.6123" y2="25.363" gradientUnits="userSpaceOnUse">
<stop stop-color="#A3D6D9"/>
<stop offset="0.52" stop-color="#34A4DD"/>
<stop offset="0.56" stop-color="#349DD8"/>
<stop offset="0.74" stop-color="#367EC2"/>
<stop offset="0.89" stop-color="#386BB4"/>
<stop offset="1" stop-color="#3864AF"/>
</linearGradient>
</defs>
</svg>
