<svg width="20" height="20" viewBox="0 0 20 20" fill="none" xmlns="http://www.w3.org/2000/svg">
<path fill-rule="evenodd" clip-rule="evenodd" d="M12.4915 8.33336V9.82503C12.4915 10.2 12.0415 10.3834 11.7832 10.125L9.4665 7.80003C9.30817 7.63336 9.30817 7.37503 9.4665 7.20836L11.7832 4.88336C12.0415 4.61669 12.4915 4.80003 12.4915 5.17503V6.66669H17.4998C17.9582 6.66669 18.3332 7.04169 18.3332 7.50003C18.3332 7.95836 17.9582 8.33336 17.4998 8.33336H12.4915ZM2.49984 11.6667H7.50817V10.1667C7.50817 9.80003 7.95817 9.60836 8.2165 9.87503L10.5332 12.2C10.6915 12.3667 10.6915 12.625 10.5332 12.7917L8.2165 15.1167C7.95817 15.3834 7.50817 15.2 7.50817 14.825V13.3334H2.49984C2.0415 13.3334 1.6665 12.9584 1.6665 12.5C1.6665 12.0417 2.0415 11.6667 2.49984 11.6667Z" fill="#141029" fill-opacity="0.8"/>
</svg>
